<svg width="100" height="100" viewBox="0 0 100 100" fill="none" xmlns="http://www.w3.org/2000/svg">
<mask id="path-1-inside-1_60_2" fill="white">
<path d="M49.5 12C70.2106 12.0001 86.9999 28.7894 87 49.5C87 70.2108 70.2107 86.9999 49.5 87C42.8978 87 36.695 85.2923 31.3066 82.2969L12.582 85.5117L19.2051 71.6035C14.675 65.4052 12 57.7653 12 49.5C12.0001 28.7893 28.7893 12 49.5 12Z"/>
</mask>
<path d="M49.5 12C70.2106 12.0001 86.9999 28.7894 87 49.5C87 70.2108 70.2107 86.9999 49.5 87C42.8978 87 36.695 85.2923 31.3066 82.2969L12.582 85.5117L19.2051 71.6035C14.675 65.4052 12 57.7653 12 49.5C12.0001 28.7893 28.7893 12 49.5 12Z" fill="#008FFF"/>
<path d="M49.5 12L49.5 8.87498H49.5V12ZM87 49.5H90.125V49.5L87 49.5ZM49.5 87V90.125H49.5L49.5 87ZM31.3066 82.2969L32.825 79.5655L31.8628 79.0306L30.7778 79.2169L31.3066 82.2969ZM12.582 85.5117L9.76058 84.1682L7.16826 89.612L13.1108 88.5917L12.582 85.5117ZM19.2051 71.6035L22.0265 72.9471L22.8279 71.2643L21.7281 69.7596L19.2051 71.6035ZM12 49.5L8.87498 49.5V49.5H12ZM49.5 12L49.5 15.125C68.4847 15.1251 83.8749 30.5153 83.875 49.5L87 49.5L90.125 49.5C90.1249 27.0635 71.9366 8.87509 49.5 8.87498L49.5 12ZM87 49.5H83.875C83.875 68.4848 68.4848 83.8749 49.5 83.875L49.5 87L49.5 90.125C71.9366 90.1249 90.125 71.9367 90.125 49.5H87ZM49.5 87V83.875C43.4432 83.875 37.7614 82.3097 32.825 79.5655L31.3066 82.2969L29.7882 85.0282C35.6286 88.275 42.3524 90.125 49.5 90.125V87ZM31.3066 82.2969L30.7778 79.2169L12.0532 82.4318L12.582 85.5117L13.1108 88.5917L31.8354 85.3768L31.3066 82.2969ZM12.582 85.5117L15.4035 86.8553L22.0265 72.9471L19.2051 71.6035L16.3836 70.2599L9.76058 84.1682L12.582 85.5117ZM19.2051 71.6035L21.7281 69.7596C17.5758 64.0781 15.125 57.08 15.125 49.5H12H8.87498C8.87498 58.4506 11.7742 66.7323 16.6821 73.4475L19.2051 71.6035ZM12 49.5L15.125 49.5C15.1251 30.5152 30.5152 15.125 49.5 15.125V12V8.87498C27.0633 8.87498 8.87512 27.0634 8.87498 49.5L12 49.5Z" fill="black" mask="url(#path-1-inside-1_60_2)"/>
<path d="M66.9857 49.0743C55.5266 48.7656 44.0676 48.8745 32.6267 49.4557C32.6267 49.4557 31.0831 71.7563 50.5689 72.6098C68.0026 73.3725 66.9675 49.0743 66.9675 49.0743H66.9857Z" fill="white"/>
<path d="M66.9857 47.2582C55.5266 46.9495 44.0676 47.0766 32.6267 47.6396C31.5916 47.6941 30.8834 48.4386 30.8107 49.4556C30.2841 57.3916 33.1534 66.5443 39.9089 71.1751C45.1209 74.7526 52.9842 75.697 58.6865 72.755C63.5716 70.2308 66.2774 64.9825 67.6031 59.8432C68.493 56.3928 68.9651 52.6518 68.8198 49.0924C68.729 46.7679 65.097 46.7497 65.1878 49.0924C65.4421 55.5574 64.0619 63.9837 58.8499 68.324C54.5642 71.8833 47.6633 71.4112 43.0143 68.8324C38.892 66.5443 36.4948 62.3674 35.3326 57.9001C34.6243 55.1579 34.2611 52.343 34.4427 49.4737L32.6267 51.2898C44.0676 50.7268 55.5266 50.6178 66.9857 50.9084C69.3283 50.9629 69.3283 47.3309 66.9857 47.2764V47.2582Z" fill="black"/>
<path d="M66.9857 47.2583C55.5266 46.9496 44.0676 47.0767 32.6267 47.6397C31.5916 47.6941 30.8834 48.4387 30.8107 49.4557C30.2841 57.3917 33.1534 66.5444 39.9089 71.1752C45.1209 74.7527 52.9842 75.6971 58.6865 72.7551C63.5716 70.2309 66.2774 64.9826 67.6031 59.8433C68.493 56.3929 68.9651 52.6519 68.8198 49.0925C68.729 46.768 65.097 46.7498 65.1878 49.0925C65.4421 55.5575 64.0619 63.9838 58.8499 68.324C54.5642 71.8834 47.6633 71.4113 43.0143 68.8325C38.892 66.5444 36.4948 62.3675 35.3326 57.9001C34.6243 55.158 34.2611 52.3431 34.4427 49.4738L32.6267 51.2899C44.0676 50.7269 55.5266 50.6179 66.9857 50.9085C69.3283 50.963 69.3283 47.3309 66.9857 47.2765V47.2583Z" fill="black"/>
<g filter="url(#filter0_d_60_2)">
<path d="M65.0425 32.5672C64.9517 35.4728 64.8609 38.3784 64.7701 41.3022C64.7338 42.2465 65.6237 43.1545 66.5861 43.1182C67.6031 43.0819 68.3658 42.3192 68.4022 41.3022C68.493 38.3966 68.5838 35.491 68.6746 32.5672C68.7109 31.6229 67.821 30.7149 66.8585 30.7512C65.8416 30.7875 65.0789 31.5502 65.0425 32.5672Z" fill="black"/>
</g>
<g filter="url(#filter1_d_60_2)">
<path d="M31.6098 33.33V41.5566C31.6098 42.5009 32.4451 43.4089 33.4258 43.3726C34.4064 43.3363 35.2418 42.5735 35.2418 41.5566V33.33C35.2418 32.3857 34.4064 31.4777 33.4258 31.514C32.4451 31.5503 31.6098 32.3131 31.6098 33.33Z" fill="black"/>
</g>
<defs>
<filter id="filter0_d_60_2" x="52.269" y="30.7501" width="28.9067" height="37.3693" filterUnits="userSpaceOnUse" color-interpolation-filters="sRGB">
<feFlood flood-opacity="0" result="BackgroundImageFix"/>
<feColorMatrix in="SourceAlpha" type="matrix" values="0 0 0 0 0 0 0 0 0 0 0 0 0 0 0 0 0 0 127 0" result="hardAlpha"/>
<feOffset dy="12.5001"/>
<feGaussianBlur stdDeviation="6.25004"/>
<feComposite in2="hardAlpha" operator="out"/>
<feColorMatrix type="matrix" values="0 0 0 0 0 0 0 0 0 0 0 0 0 0 0 0 0 0 0.25 0"/>
<feBlend mode="normal" in2="BackgroundImageFix" result="effect1_dropShadow_60_2"/>
<feBlend mode="normal" in="SourceGraphic" in2="effect1_dropShadow_60_2" result="shape"/>
</filter>
<filter id="filter1_d_60_2" x="19.1097" y="31.513" width="28.6322" height="36.8608" filterUnits="userSpaceOnUse" color-interpolation-filters="sRGB">
<feFlood flood-opacity="0" result="BackgroundImageFix"/>
<feColorMatrix in="SourceAlpha" type="matrix" values="0 0 0 0 0 0 0 0 0 0 0 0 0 0 0 0 0 0 127 0" result="hardAlpha"/>
<feOffset dy="12.5001"/>
<feGaussianBlur stdDeviation="6.25004"/>
<feComposite in2="hardAlpha" operator="out"/>
<feColorMatrix type="matrix" values="0 0 0 0 0 0 0 0 0 0 0 0 0 0 0 0 0 0 0.25 0"/>
<feBlend mode="normal" in2="BackgroundImageFix" result="effect1_dropShadow_60_2"/>
<feBlend mode="normal" in="SourceGraphic" in2="effect1_dropShadow_60_2" result="shape"/>
</filter>
</defs>
</svg>
